<svg width="507" height="476" viewBox="0 0 507 476" fill="none" xmlns="http://www.w3.org/2000/svg">
<path d="M0.543304 227.538C0.543304 339.992 38.9164 492.05 179.79 473.94C306.63 473.94 449.646 329.657 449.646 217.203C449.646 104.749 316.934 19.9497 196.505 19.9497C-7.5192 19.9497 0.543304 115.083 0.543304 227.538Z" fill="#E6F6FE"/>
<path d="M41.6238 11.5278L19.5311 11.5278C16.4969 11.5276 14.037 9.06785 14.0369 6.03369C14.0369 2.99943 16.4968 0.539761 19.5311 0.539551L41.6238 0.539551C44.6581 0.539677 47.118 2.99938 47.118 6.03369C47.1178 9.0679 44.658 11.5277 41.6238 11.5278Z" fill="#EBEBEB" stroke="#0076AD" stroke-width="1.07836"/>
<path d="M20.2986 1.54199H158.117C161.988 1.54199 165.127 4.6806 165.127 8.55176V79.5938C165.127 83.4649 161.988 86.6035 158.117 86.6035H20.2986C16.4274 86.6035 13.2888 83.4649 13.2888 79.5938V8.55176C13.2888 4.6806 16.4274 1.54199 20.2986 1.54199Z" fill="white" stroke="#0076AD" stroke-width="1.07836"/>
<path d="M20.9436 1.00293C16.4769 1.00293 12.8557 4.6241 12.8557 9.09082V79.0547C12.8557 83.5214 16.4769 87.1426 20.9436 87.1426H19.6536C15.7826 87.1426 12.6441 84.0047 12.6438 80.1338V8.0127C12.6438 4.14153 15.7824 1.00293 19.6536 1.00293H20.9436ZM158.762 1.00293C162.633 1.00293 165.772 4.14153 165.772 8.0127V80.1338C165.771 84.0047 162.633 87.1426 158.762 87.1426H157.472C161.939 87.1426 165.56 83.5214 165.56 79.0547V9.09082C165.56 4.6241 161.939 1.00293 157.472 1.00293H158.762Z" fill="#EBEBEB" stroke="#0076AD" stroke-width="1.07836"/>
<path d="M23.9983 5.12207C24.7151 5.12207 25.3946 5.33128 25.925 5.69434L26.1428 5.85938C26.6948 6.32088 26.9807 6.924 26.9807 7.52734C26.9806 7.92239 26.8584 8.31753 26.6164 8.6748L26.5051 8.82617C26.2276 9.17316 25.8399 9.46302 25.3742 9.65918L25.1701 9.7373C24.6828 9.90605 24.1492 9.96601 23.6242 9.91211L23.3996 9.88281C22.8782 9.79608 22.4024 9.59846 22.0149 9.31934L21.8537 9.19531C21.4416 8.85075 21.175 8.42391 21.0686 7.97656C20.9758 7.58676 21.0048 7.18313 21.1555 6.80176L21.2278 6.63965C21.4143 6.26324 21.7204 5.92251 22.1252 5.6582L22.3049 5.5498C22.7377 5.30809 23.2431 5.16169 23.7707 5.12891L23.9983 5.12207Z" fill="#37474F" stroke="#0076AD" stroke-width="1.07836"/>
<path d="M38.3817 5.12207C39.0985 5.12207 39.778 5.33127 40.3085 5.69434L40.5262 5.85938C41.0782 6.32088 41.3641 6.924 41.3641 7.52734C41.3641 7.92239 41.2419 8.31753 40.9999 8.6748L40.8885 8.82617C40.6111 9.17316 40.2234 9.46302 39.7577 9.65918L39.5536 9.7373C39.0662 9.90605 38.5326 9.96601 38.0077 9.91211L37.7831 9.88281C37.2616 9.79608 36.7858 9.59846 36.3983 9.31934L36.2372 9.19531C35.8767 8.89393 35.6279 8.52945 35.4999 8.14355L35.452 7.97656C35.3593 7.58676 35.3883 7.18313 35.5389 6.80176L35.6112 6.63965C35.7977 6.26324 36.1038 5.92251 36.5087 5.6582L36.6884 5.5498C37.1211 5.30809 37.6265 5.16169 38.1542 5.12891L38.3817 5.12207Z" fill="#EBEBEB" stroke="#0076AD" stroke-width="1.07836"/>
<path d="M52.8157 5.12207C53.5317 5.12434 54.2097 5.33436 54.7395 5.69727L54.9573 5.8623C55.4403 6.26611 55.7212 6.77767 55.7854 7.30371L55.7991 7.5293C55.7986 7.9237 55.6765 8.31812 55.4348 8.6748L55.3235 8.82617C55.046 9.17316 54.6583 9.46302 54.1926 9.65918L53.9885 9.7373C53.5012 9.90605 52.9676 9.96601 52.4426 9.91211L52.218 9.88281C51.6966 9.79608 51.2208 9.59847 50.8333 9.31934L50.6721 9.19531C50.26 8.85075 49.9934 8.4239 49.887 7.97656C49.7942 7.58676 49.8232 7.18313 49.9739 6.80176L50.0462 6.63965C50.2327 6.26325 50.5388 5.92251 50.9436 5.6582L51.1233 5.5498C51.6177 5.27368 52.2069 5.12227 52.8157 5.12207Z" fill="#00BBA7" stroke="#0076AD" stroke-width="1.07836"/>
<mask id="path-8-inside-1_56_9" fill="white">
<path d="M165.126 13.4473H13.2889C12.9911 13.4473 12.7497 13.6887 12.7497 13.9864C12.7497 14.2842 12.9911 14.5256 13.2889 14.5256H165.126C165.424 14.5256 165.666 14.2842 165.666 13.9864C165.666 13.6887 165.424 13.4473 165.126 13.4473Z"/>
</mask>
<path d="M165.126 13.4473H13.2889C12.9911 13.4473 12.7497 13.6887 12.7497 13.9864C12.7497 14.2842 12.9911 14.5256 13.2889 14.5256H165.126C165.424 14.5256 165.666 14.2842 165.666 13.9864C165.666 13.6887 165.424 13.4473 165.126 13.4473Z" fill="#EBEBEB"/>
<path d="M13.2889 13.4473V14.5256H165.126V13.4473V12.3689H13.2889V13.4473ZM165.126 14.5256V13.4473H13.2889V14.5256V15.604H165.126V14.5256ZM13.2889 14.5256V13.4473C13.5867 13.4473 13.8281 13.6887 13.8281 13.9864H12.7497H11.6714C11.6714 14.8798 12.3956 15.604 13.2889 15.604V14.5256ZM165.666 13.9864H164.587C164.587 13.6887 164.829 13.4473 165.126 13.4473V14.5256V15.604C166.02 15.604 166.744 14.8798 166.744 13.9864H165.666ZM165.126 13.4473V14.5256C164.829 14.5256 164.587 14.2842 164.587 13.9864H165.666H166.744C166.744 13.0931 166.02 12.3689 165.126 12.3689V13.4473ZM13.2889 13.4473V12.3689C12.3956 12.3689 11.6714 13.0931 11.6714 13.9864H12.7497H13.8281C13.8281 14.2842 13.5867 14.5256 13.2889 14.5256V13.4473Z" fill="#0076AD" mask="url(#path-8-inside-1_56_9)"/>
<path d="M24.4252 159.263H7.93695C4.90263 159.263 2.44294 156.803 2.44281 153.769C2.44281 150.735 4.90256 148.275 7.93695 148.275H24.4252C27.4595 148.275 29.9194 150.735 29.9194 153.769C29.9192 156.803 27.4594 159.263 24.4252 159.263Z" fill="#EBEBEB" stroke="#0076AD" stroke-width="1.07836"/>
<path d="M8.82674 149.277H121.558C125.429 149.277 128.568 152.416 128.568 156.287V227.329C128.568 231.2 125.429 234.339 121.558 234.339H8.82674C4.95558 234.339 1.81697 231.2 1.81697 227.329V156.287C1.81697 152.416 4.95558 149.277 8.82674 149.277Z" fill="white" stroke="#0076AD" stroke-width="1.07836"/>
<path d="M1.27779 226.79C1.27779 231.257 4.89895 234.878 9.36568 234.878H8.28755C4.41655 234.878 1.27805 231.74 1.27779 227.869V226.79ZM8.28755 148.738H9.36568C4.89895 148.738 1.27779 152.359 1.27779 156.826V155.748C1.27779 151.877 4.41639 148.738 8.28755 148.738ZM121.019 234.878C125.486 234.878 129.107 231.257 129.107 226.79V227.869C129.107 231.74 125.969 234.878 122.098 234.878H121.019ZM122.098 148.738C125.969 148.739 129.107 151.877 129.107 155.748V156.826C129.107 152.359 125.486 148.738 121.019 148.738H122.098Z" fill="#EBEBEB" stroke="#0076AD" stroke-width="1.07836"/>
<path d="M10.6816 152.857C11.3192 152.858 11.9309 153.111 12.3818 153.562C12.8328 154.013 13.0859 154.625 13.0859 155.263C13.0859 155.679 12.9784 156.087 12.7744 156.447L12.6806 156.599C12.4495 156.944 12.1333 157.224 11.7637 157.41L11.6015 157.484C11.2171 157.644 10.7987 157.7 10.3877 157.649L10.2119 157.621C9.80388 157.54 9.42493 157.354 9.11131 157.084L8.98045 156.963C8.68621 156.669 8.47482 156.303 8.36424 155.904L8.32225 155.731C8.24108 155.323 8.26769 154.902 8.39745 154.509L8.45995 154.342C8.61921 153.957 8.87486 153.622 9.20116 153.367L9.34569 153.263C9.69174 153.032 10.0909 152.895 10.5039 152.864L10.6816 152.857Z" fill="#37474F" stroke="#0076AD" stroke-width="1.07836"/>
<path d="M22.7054 152.857C23.343 152.858 23.9547 153.111 24.4056 153.562C24.8566 154.013 25.1097 154.625 25.1097 155.263C25.1096 155.679 25.0022 156.087 24.7982 156.447L24.7044 156.599C24.4733 156.944 24.1571 157.224 23.7874 157.41L23.6253 157.484C23.2409 157.644 22.8225 157.7 22.4114 157.649L22.2357 157.621C21.8276 157.54 21.4487 157.354 21.1351 157.084L21.0042 156.963C20.71 156.669 20.4986 156.303 20.388 155.904L20.346 155.731C20.2648 155.323 20.2915 154.902 20.4212 154.509L20.4837 154.342C20.643 153.957 20.8986 153.622 21.2249 153.367L21.3695 153.263C21.7155 153.032 22.1146 152.895 22.5277 152.864L22.7054 152.857Z" fill="#EBEBEB" stroke="#0076AD" stroke-width="1.07836"/>
<path d="M34.7702 152.857C35.328 152.86 35.8652 153.055 36.2927 153.405L36.4695 153.565C36.8636 153.96 37.1074 154.476 37.1638 155.026L37.1765 155.265C37.1761 155.68 37.0686 156.087 36.865 156.447L36.7712 156.599C36.5401 156.944 36.2239 157.224 35.8542 157.41L35.6921 157.484C35.3077 157.644 34.8893 157.7 34.4783 157.649L34.3025 157.621C33.8945 157.54 33.5155 157.354 33.2019 157.084L33.071 156.963C32.7768 156.669 32.5654 156.303 32.4548 155.904L32.4128 155.731C32.3317 155.323 32.3583 154.902 32.488 154.509L32.5505 154.342C32.7098 153.957 32.9654 153.622 33.2917 153.367L33.4363 153.263C33.8312 152.999 34.2953 152.858 34.7702 152.857Z" fill="#00BBA7" stroke="#0076AD" stroke-width="1.07836"/>
<mask id="path-16-inside-2_56_9" fill="white">
<path d="M128.568 161.183H1.81709C1.51931 161.183 1.27791 161.424 1.27791 161.722C1.27791 162.02 1.51931 162.261 1.81709 162.261H128.568C128.866 162.261 129.107 162.02 129.107 161.722C129.107 161.424 128.866 161.183 128.568 161.183Z"/>
</mask>
<path d="M128.568 161.183H1.81709C1.51931 161.183 1.27791 161.424 1.27791 161.722C1.27791 162.02 1.51931 162.261 1.81709 162.261H128.568C128.866 162.261 129.107 162.02 129.107 161.722C129.107 161.424 128.866 161.183 128.568 161.183Z" fill="#EBEBEB"/>
<path d="M1.81709 161.183V162.261H128.568V161.183V160.104H1.81709V161.183ZM128.568 162.261V161.183H1.81709V162.261V163.339H128.568V162.261ZM1.81709 162.261V161.183C2.11487 161.183 2.35627 161.424 2.35627 161.722H1.27791H0.199546C0.199546 162.615 0.923743 163.339 1.81709 163.339V162.261ZM129.107 161.722H128.029C128.029 161.424 128.27 161.183 128.568 161.183V162.261V163.339C129.461 163.339 130.185 162.615 130.185 161.722H129.107ZM128.568 161.183V162.261C128.27 162.261 128.029 162.02 128.029 161.722H129.107H130.185C130.185 160.828 129.461 160.104 128.568 160.104V161.183ZM1.81709 161.183V160.104C0.923745 160.104 0.199546 160.828 0.199546 161.722H1.27791H2.35627C2.35627 162.02 2.11487 162.261 1.81709 162.261V161.183Z" fill="#0076AD" mask="url(#path-16-inside-2_56_9)"/>
<path d="M305.877 25.5464L289.388 25.5464C286.354 25.5464 283.894 23.0865 283.894 20.0522C283.894 17.0179 286.354 14.5581 289.388 14.5581L305.877 14.5581C308.911 14.5582 311.371 17.0179 311.371 20.0522C311.371 23.0865 308.911 25.5463 305.877 25.5464Z" fill="#EBEBEB" stroke="#0076AD" stroke-width="1.07836"/>
<path d="M290.278 15.561H403.009C406.881 15.561 410.019 18.6996 410.019 22.5708V93.6128C410.019 97.484 406.881 100.623 403.009 100.623H290.278C286.407 100.623 283.268 97.4839 283.268 93.6128V22.5708C283.268 18.6996 286.407 15.561 290.278 15.561Z" fill="white" stroke="#0076AD" stroke-width="1.07836"/>
<path d="M282.729 93.0732C282.729 97.54 286.35 101.161 290.817 101.161H289.739C285.868 101.161 282.729 98.0233 282.729 94.1523V93.0732ZM289.739 15.0215H290.817C286.35 15.0215 282.729 18.6427 282.729 23.1094V22.0312C282.729 18.1601 285.868 15.0215 289.739 15.0215ZM402.47 101.161C406.937 101.161 410.558 97.54 410.558 93.0732V94.1523C410.558 98.0231 407.42 101.161 403.549 101.161H402.47ZM403.549 15.0215C407.42 15.0217 410.558 18.1602 410.558 22.0312V23.1094C410.558 18.6427 406.937 15.0215 402.47 15.0215H403.549Z" fill="#EBEBEB" stroke="#0076AD" stroke-width="1.07836"/>
<path d="M292.133 19.1411C292.771 19.1412 293.382 19.3944 293.833 19.8452C294.284 20.2962 294.537 20.9086 294.537 21.5464C294.537 21.9625 294.43 22.3706 294.226 22.731L294.132 22.8823C293.901 23.2281 293.585 23.5076 293.215 23.6938L293.053 23.7681C292.668 23.9273 292.25 23.9836 291.839 23.9331L291.663 23.9048C291.255 23.8236 290.876 23.638 290.563 23.3677L290.432 23.2466C290.138 22.9523 289.926 22.5871 289.816 22.188L289.774 22.0151C289.692 21.607 289.719 21.1857 289.849 20.7925L289.911 20.6255C290.071 20.2412 290.326 19.9057 290.652 19.6509L290.797 19.5464C291.143 19.3153 291.542 19.1785 291.955 19.1479L292.133 19.1411Z" fill="#37474F" stroke="#0076AD" stroke-width="1.07836"/>
<path d="M304.157 19.1411C304.794 19.1412 305.406 19.3944 305.857 19.8452C306.308 20.2962 306.561 20.9086 306.561 21.5464C306.561 21.9625 306.453 22.3706 306.249 22.731L306.156 22.8823C305.925 23.2281 305.608 23.5076 305.239 23.6938L305.077 23.7681C304.692 23.9273 304.274 23.9836 303.863 23.9331L303.687 23.9048C303.279 23.8236 302.9 23.638 302.586 23.3677L302.456 23.2466C302.161 22.9523 301.95 22.5871 301.839 22.188L301.797 22.0151C301.716 21.607 301.743 21.1857 301.873 20.7925L301.935 20.6255C302.094 20.2412 302.35 19.9057 302.676 19.6509L302.821 19.5464C303.167 19.3153 303.566 19.1785 303.979 19.1479L304.157 19.1411Z" fill="#EBEBEB" stroke="#0076AD" stroke-width="1.07836"/>
<path d="M316.222 19.1411C316.779 19.1432 317.316 19.3383 317.744 19.689L317.921 19.8491C318.315 20.2435 318.559 20.7602 318.615 21.3101L318.628 21.5483C318.627 21.9637 318.52 22.3712 318.316 22.731L318.223 22.8823C317.991 23.2281 317.675 23.5076 317.306 23.6938L317.143 23.7681C316.759 23.9273 316.341 23.9836 315.93 23.9331L315.754 23.9048C315.346 23.8236 314.967 23.638 314.653 23.3677L314.522 23.2466C314.228 22.9523 314.017 22.5871 313.906 22.188L313.864 22.0151C313.783 21.607 313.81 21.1857 313.939 20.7925L314.002 20.6255C314.161 20.2412 314.417 19.9057 314.743 19.6509L314.888 19.5464C315.283 19.2826 315.747 19.1414 316.222 19.1411Z" fill="#00BBA7" stroke="#0076AD" stroke-width="1.07836"/>
<mask id="path-24-inside-3_56_9" fill="white">
<path d="M410.019 27.4663H283.268C282.971 27.4663 282.729 27.7077 282.729 28.0055C282.729 28.3033 282.971 28.5447 283.268 28.5447H410.019C410.317 28.5447 410.558 28.3033 410.558 28.0055C410.558 27.7077 410.317 27.4663 410.019 27.4663Z"/>
</mask>
<path d="M410.019 27.4663H283.268C282.971 27.4663 282.729 27.7077 282.729 28.0055C282.729 28.3033 282.971 28.5447 283.268 28.5447H410.019C410.317 28.5447 410.558 28.3033 410.558 28.0055C410.558 27.7077 410.317 27.4663 410.019 27.4663Z" fill="#EBEBEB"/>
<path d="M283.268 27.4663V28.5447H410.019V27.4663V26.3879H283.268V27.4663ZM410.019 28.5447V27.4663H283.268V28.5447V29.623H410.019V28.5447ZM283.268 28.5447V27.4663C283.566 27.4663 283.808 27.7077 283.808 28.0055H282.729H281.651C281.651 28.8988 282.375 29.623 283.268 29.623V28.5447ZM410.558 28.0055H409.48C409.48 27.7077 409.721 27.4663 410.019 27.4663V28.5447V29.623C410.912 29.623 411.637 28.8988 411.637 28.0055H410.558ZM410.019 27.4663V28.5447C409.721 28.5447 409.48 28.3033 409.48 28.0055H410.558H411.637C411.637 27.1121 410.912 26.3879 410.019 26.3879V27.4663ZM283.268 27.4663V26.3879C282.375 26.3879 281.651 27.1121 281.651 28.0055H282.729H283.808C283.808 28.3033 283.566 28.5447 283.268 28.5447V27.4663Z" fill="#0076AD" mask="url(#path-24-inside-3_56_9)"/>
<path d="M359.795 170.047H343.306C340.272 170.047 337.812 167.588 337.812 164.553C337.812 161.519 340.272 159.059 343.306 159.059H359.795C362.829 159.059 365.289 161.519 365.289 164.553C365.289 167.587 362.829 170.047 359.795 170.047Z" fill="#EBEBEB" stroke="#0076AD" stroke-width="1.07836"/>
<path d="M344.196 160.062H456.928C460.799 160.062 463.937 163.2 463.937 167.071V238.113C463.937 241.984 460.799 245.123 456.928 245.123H344.196C340.325 245.123 337.186 241.984 337.186 238.113V167.071C337.186 163.2 340.325 160.062 344.196 160.062Z" fill="white" stroke="#0076AD" stroke-width="1.07836"/>
<path d="M336.647 237.574C336.647 242.04 340.268 245.662 344.735 245.662H343.657C339.786 245.662 336.648 242.524 336.647 238.653V237.574ZM343.657 159.522H344.735C340.268 159.522 336.647 163.143 336.647 167.61V166.532C336.647 162.661 339.786 159.522 343.657 159.522ZM456.388 245.662C460.855 245.662 464.476 242.04 464.476 237.574V238.653C464.476 242.524 461.338 245.661 457.468 245.662H456.388ZM457.468 159.522C461.339 159.522 464.476 162.661 464.476 166.532V167.61C464.476 163.143 460.855 159.522 456.388 159.522H457.468Z" fill="#EBEBEB" stroke="#0076AD" stroke-width="1.07836"/>
<path d="M346.051 163.642C346.689 163.642 347.3 163.895 347.751 164.346C348.202 164.797 348.455 165.409 348.455 166.047C348.455 166.463 348.348 166.871 348.144 167.231L348.05 167.383C347.819 167.729 347.503 168.008 347.133 168.194L346.971 168.269C346.587 168.428 346.168 168.484 345.757 168.434L345.581 168.405C345.173 168.324 344.794 168.138 344.481 167.868L344.35 167.747C344.056 167.453 343.844 167.088 343.734 166.688L343.692 166.516C343.611 166.108 343.637 165.686 343.767 165.293L343.829 165.126C343.989 164.742 344.244 164.406 344.571 164.151L344.715 164.047C345.061 163.816 345.46 163.679 345.873 163.648L346.051 163.642Z" fill="#37474F" stroke="#0076AD" stroke-width="1.07836"/>
<path d="M358.075 163.642C358.712 163.642 359.324 163.895 359.775 164.346C360.226 164.797 360.479 165.409 360.479 166.047C360.479 166.463 360.372 166.871 360.168 167.231L360.074 167.383C359.843 167.729 359.527 168.008 359.157 168.194L358.995 168.269C358.61 168.428 358.192 168.484 357.781 168.434L357.605 168.405C357.197 168.324 356.818 168.138 356.505 167.868L356.374 167.747C356.079 167.453 355.868 167.088 355.757 166.688L355.715 166.516C355.634 166.108 355.661 165.686 355.791 165.293L355.853 165.126C356.012 164.742 356.268 164.406 356.594 164.151L356.739 164.047C357.085 163.816 357.484 163.679 357.897 163.648L358.075 163.642Z" fill="#EBEBEB" stroke="#0076AD" stroke-width="1.07836"/>
<path d="M370.14 163.642C370.697 163.644 371.235 163.839 371.662 164.189L371.839 164.35C372.233 164.744 372.477 165.261 372.533 165.811L372.546 166.049C372.546 166.464 372.438 166.872 372.234 167.231L372.141 167.383C371.91 167.729 371.593 168.008 371.224 168.194L371.062 168.269C370.677 168.428 370.259 168.484 369.848 168.434L369.672 168.405C369.264 168.324 368.885 168.138 368.571 167.868L368.44 167.747C368.146 167.453 367.935 167.088 367.824 166.688L367.782 166.516C367.701 166.108 367.728 165.686 367.857 165.293L367.92 165.126C368.079 164.742 368.335 164.406 368.661 164.151L368.806 164.047C369.201 163.783 369.665 163.642 370.14 163.642Z" fill="#00BBA7" stroke="#0076AD" stroke-width="1.07836"/>
<mask id="path-32-inside-4_56_9" fill="white">
<path d="M463.937 171.967H337.187C336.889 171.967 336.647 172.208 336.647 172.506C336.647 172.804 336.889 173.045 337.187 173.045H463.937C464.235 173.045 464.476 172.804 464.476 172.506C464.476 172.208 464.235 171.967 463.937 171.967Z"/>
</mask>
<path d="M463.937 171.967H337.187C336.889 171.967 336.647 172.208 336.647 172.506C336.647 172.804 336.889 173.045 337.187 173.045H463.937C464.235 173.045 464.476 172.804 464.476 172.506C464.476 172.208 464.235 171.967 463.937 171.967Z" fill="#EBEBEB"/>
<path d="M337.187 171.967V173.045H463.937V171.967V170.888H337.187V171.967ZM463.937 173.045V171.967H337.187V173.045V174.124H463.937V173.045ZM337.187 173.045V171.967C337.484 171.967 337.726 172.208 337.726 172.506H336.647H335.569C335.569 173.399 336.293 174.124 337.187 174.124V173.045ZM464.476 172.506H463.398C463.398 172.208 463.639 171.967 463.937 171.967V173.045V174.124C464.831 174.124 465.555 173.399 465.555 172.506H464.476ZM463.937 171.967V173.045C463.639 173.045 463.398 172.804 463.398 172.506H464.476H465.555C465.555 171.613 464.831 170.888 463.937 170.888V171.967ZM337.187 171.967V170.888C336.293 170.888 335.569 171.613 335.569 172.506H336.647H337.726C337.726 172.804 337.484 173.045 337.187 173.045V171.967Z" fill="#0076AD" mask="url(#path-32-inside-4_56_9)"/>
<path d="M4.55452 394.13L67.2947 393.837L130.047 393.727L255.527 393.532L381.008 393.727L443.76 393.837L506.5 394.13L443.76 394.435L381.008 394.545L255.527 394.74L130.047 394.532L67.2947 394.435L4.55452 394.13Z" fill="#263238"/>
<path d="M132.47 203.303C126.83 225.615 116.295 251.442 121.449 274.734C125.525 292.98 138.951 307.452 153.8 318.03C186.377 341.248 236.133 353.616 268.549 323.217C281.489 311.064 289.296 281.808 274.889 267.563C267.492 260.263 257.636 256.887 248.491 252.293C236.456 246.265 228.746 237.196 225.285 224.17C218.523 198.72 224.293 182.275 227.236 156.848C227.765 152.124 227.614 147.336 223.84 142.495C220.571 137.613 216.034 133.713 210.716 131.215C206.367 128.158 201.328 126.228 196.05 125.597C184.749 124.518 172.035 132.498 162.179 137.092C152.323 141.686 146.823 147.649 143.922 158.379C139.857 173.293 136.277 188.336 132.47 203.303Z" fill="#263238"/>
<path d="M127.51 213.354C133.98 193.231 140.87 173.271 147.621 153.256C147.621 153.127 147.858 153.17 147.826 153.256C142.747 169.885 137.905 186.578 132.61 203.152C127.412 219.392 120.964 235.74 117.211 252.38C108.8 289.734 144.17 312.93 176.521 317.642C177.988 317.858 177.481 320.176 176.003 319.907C147.783 314.881 116.273 298.458 114.073 266.237C112.865 248.616 122.204 229.788 127.51 213.354Z" fill="#263238"/>
<path d="M225.781 154.508C225.799 154.426 225.849 154.356 225.92 154.311C225.991 154.267 226.077 154.252 226.158 154.271C226.24 154.289 226.31 154.339 226.355 154.41C226.399 154.481 226.414 154.567 226.395 154.648C223.106 175.46 217.305 199.422 225.317 219.803C229.286 229.834 236.2 238.428 245.148 244.454C252.244 249.199 260.396 251.161 268.171 254.418C298.549 267.143 290.073 309.965 263.631 321.913C263.081 322.161 262.628 321.212 263.178 320.942C282.06 311.366 292.283 289.001 282.578 269.062C274.825 253.07 253.57 253.275 240.651 242.837C213.854 221.226 218.955 184.325 225.781 154.508Z" fill="#263238"/>
<path d="M186.313 243.634C191.564 276.427 218.469 356.647 239.702 365.942C258.487 374.17 310.055 376.553 328.883 372.197C337.51 370.191 334.329 309.339 321 308.422C304.35 307.29 280.885 309.059 266.058 305.856C260.806 304.713 240.964 279.975 205.313 238.825C192.06 223.512 183.369 225.162 186.313 243.634Z" fill="#C7A09B"/>
<path d="M303.638 369.199C304.717 369.738 319.814 377.351 329.185 380.069C336.173 382.085 356.424 387.369 359.379 379.907C361.428 374.817 349.879 370.31 341.791 366.967C337.531 365.187 332.28 360.723 333.531 357.984C335.687 353.196 346.697 357.984 353.922 362.2C367.877 370.31 386.457 384.9 394.987 377.826C398.222 375.141 394.458 370.277 388.991 365.489C397.866 371.065 407.323 375.626 411.033 372.801C413.189 371.183 413.254 368.973 412.111 366.449C414.85 367.333 417.276 367.161 418.959 365.371C421.849 362.341 420.436 357.887 417.287 353.315C417.829 353.253 418.348 353.065 418.803 352.765C419.259 352.465 419.637 352.062 419.908 351.589C426.022 342.272 395.418 315.507 384.839 313.006C353.707 305.608 320.59 308.304 320.59 308.304C308.362 318.117 303.606 369.177 303.638 369.199Z" fill="#C7A09B"/>
<path d="M349.436 340.546C356.849 341.702 363.93 344.426 370.206 348.537C378.099 353.746 383.329 359.838 389.951 365.985C389.984 366.018 390.003 366.063 390.004 366.111C390.005 366.158 389.988 366.204 389.956 366.239C389.924 366.274 389.88 366.295 389.832 366.298C389.785 366.3 389.739 366.285 389.703 366.255C386.554 363.343 373.473 352.365 370.098 349.874C364 345.274 356.934 342.125 349.436 340.665C349.307 340.654 349.329 340.525 349.436 340.546Z" fill="#263238"/>
<path d="M355.216 327.337C363.401 329.569 371.78 331.833 379.372 335.705C387.686 339.943 394.189 346.844 400.583 353.487C404.422 357.477 408.175 361.549 411.841 365.705C411.992 365.888 411.755 366.158 411.593 365.985C405.123 359.112 398.43 352.448 391.514 345.992C385.156 339.965 377.669 335.256 369.483 332.135C364.803 330.345 359.983 328.9 355.184 327.509C355.098 327.455 355.119 327.304 355.216 327.337Z" fill="#263238"/>
<path d="M363.962 315.776C371.91 317.415 378.843 318.807 385.885 323.066C395.202 328.706 404.217 338.163 407.355 341.582C410.838 345.302 414.203 349.13 417.503 353.023C417.632 353.174 417.363 353.422 417.222 353.26C409.667 344.738 401.566 336.716 392.97 329.245C388.934 325.623 384.361 322.647 379.415 320.424C374.396 318.457 369.219 316.921 363.941 315.83C363.941 315.83 363.919 315.776 363.962 315.776Z" fill="#263238"/>
<path d="M247.963 279.9L194.433 285.626C194.433 285.626 185.213 260.187 182.096 245.392C177.966 225.809 184.253 219.684 203.879 234.425C217.003 244.281 247.963 279.9 247.963 279.9Z" fill="#00BBA7"/>
<path d="M200.968 284.936C200.385 284.936 194.864 285.302 194.497 285.453C193.484 282.434 192.513 279.393 191.478 276.384C190.95 274.885 190.4 273.386 189.839 271.898C189.278 270.41 188.577 268.372 188.027 266.916C188.025 266.891 188.017 266.866 188.004 266.844C187.991 266.822 187.974 266.803 187.952 266.788C187.931 266.774 187.907 266.764 187.882 266.76C187.856 266.756 187.83 266.758 187.806 266.766C187.781 266.773 187.758 266.786 187.739 266.803C187.72 266.82 187.706 266.841 187.696 266.865C187.686 266.889 187.682 266.914 187.683 266.94C187.684 266.966 187.691 266.991 187.704 267.013C188.243 268.965 188.707 270.41 189.17 272.103C189.591 273.602 190.055 275.112 190.54 276.6C191.618 279.749 192.546 283.156 193.775 286.251C193.872 286.488 200.504 285.302 201.065 285.173C201.097 285.097 201.065 284.946 200.968 284.936Z" fill="#263238"/>
<path d="M241.988 275.403C234.149 275.694 226.32 276.104 218.502 276.859C214.598 277.233 210.705 277.668 206.823 278.164C202.941 278.66 199.102 279.555 195.22 279.986C195.183 279.996 195.15 280.017 195.126 280.047C195.103 280.078 195.09 280.115 195.09 280.153C195.09 280.192 195.103 280.229 195.126 280.259C195.15 280.289 195.183 280.311 195.22 280.32C199.07 279.684 203.049 279.555 206.931 279.134C210.813 278.714 214.727 278.282 218.62 277.894C226.406 277.128 234.203 276.33 241.999 275.737C242.258 275.716 242.204 275.392 241.988 275.403Z" fill="#263238"/>
<path d="M222.19 375.982L89.5511 375.637C89.5511 375.637 116.65 263.595 145.906 232.322C159.224 218.099 172.24 220.266 183.272 229.421C186.021 231.708 220.141 275.015 223.031 290.101C225.587 303.44 214.749 318.246 214.749 318.246L222.19 375.982Z" fill="#00BBA7"/>
<path d="M201.205 252.337C205.518 259.163 210.134 265.741 214.436 272.524C216.648 275.854 218.65 279.319 220.432 282.898C222.258 286.462 223.26 290.39 223.365 294.393C223.592 292.369 223.515 290.323 223.139 288.322C222.743 286.321 222.132 284.368 221.316 282.499C219.649 278.808 217.703 275.249 215.493 271.855C213.444 268.76 211.341 265.676 209.174 262.689C208.818 261.611 208.387 260.597 207.977 259.551C207.338 258.035 206.596 256.565 205.755 255.151C206.203 256.73 206.751 258.279 207.395 259.788C207.599 260.209 207.783 260.619 207.955 261.05C205.777 258.117 203.527 255.213 201.205 252.337Z" fill="#263238"/>
<path d="M140.547 285.529C140.437 289.788 140.109 294.038 139.566 298.264C139.005 301.65 138.099 305.241 135.619 307.646C133.139 310.051 129.246 310.04 125.914 309.479C120.606 308.388 115.411 306.807 110.396 304.756L108.703 304.109L108.552 304.465L110.266 305.122C115.299 307.207 120.516 308.814 125.849 309.921C127.591 310.243 129.371 310.312 131.133 310.126C132.938 309.963 134.638 309.205 135.964 307.969C138.595 305.414 139.501 301.736 140.072 298.34C140.676 294.231 140.881 290.122 141.086 286.014C140.919 285.838 140.739 285.676 140.547 285.529ZM180.921 252.099C176.276 251.049 171.55 250.396 166.794 250.147C163.255 249.956 159.71 250.394 156.323 251.442C152.954 252.658 149.974 254.759 147.696 257.523C145.475 260.291 143.852 263.489 142.93 266.916C141.987 270.312 141.366 273.789 141.075 277.301C140.827 279.835 140.687 282.358 140.568 284.849C140.752 285.054 140.924 285.205 141.075 285.367C141.194 282.682 141.334 279.975 141.614 277.311C141.901 273.841 142.523 270.407 143.469 267.056C144.378 263.698 145.975 260.565 148.16 257.858C150.349 255.171 153.226 253.128 156.485 251.948C159.798 250.888 163.279 250.45 166.751 250.654C171.561 250.913 176.342 251.555 181.05 252.574C181.018 252.488 180.975 252.337 180.921 252.132V252.099ZM204.343 256.769L204.192 256.531C198.584 255.874 193.106 254.677 187.574 253.48C185.525 253.048 183.487 252.606 181.417 252.186C181.492 252.352 181.55 252.525 181.589 252.703L187.477 253.954C193.117 255.13 198.757 256.359 204.515 257.017L204.343 256.769ZM218.858 375.939C216.588 372.003 213.96 368.285 211.007 364.831C209.838 363.489 208.484 362.319 206.985 361.359C205.469 360.369 203.668 359.906 201.863 360.043C198.218 360.421 195.252 362.707 192.675 365.058C189.073 368.412 185.924 372.186 182.679 375.841H183.369C186.517 372.261 189.558 368.638 192.998 365.403C195.533 363.084 198.477 360.852 201.917 360.507C205.356 360.162 208.387 362.664 210.684 365.133C213.568 368.485 216.138 372.095 218.362 375.917L218.556 376.23L219.009 376.176C218.955 376.143 218.955 376.057 218.858 375.971V375.939ZM127.941 370.374C123.62 364.838 118.887 359.636 113.782 354.813C109.156 350.662 103.688 347.038 97.4987 345.766L97.4016 346.122C103.494 347.383 108.897 350.996 113.502 355.148C118.678 359.817 123.11 365.263 127.574 370.676C128.965 372.348 130.356 374.041 131.758 375.712H132.416C130.906 373.976 129.451 372.186 127.941 370.406V370.374ZM138.897 283.253C134.217 278.832 128.599 274.982 122.182 273.677L121.481 273.537C121.442 273.662 121.396 273.785 121.341 273.904C121.57 273.943 121.797 273.993 122.021 274.055C128.372 275.306 133.883 279.155 138.595 283.566C139.264 284.191 139.921 284.849 140.547 285.496C140.547 285.302 140.547 285.097 140.547 284.882C140.029 284.364 139.479 283.803 138.897 283.286V283.253ZM223.182 291.427C221.125 292.44 219.222 293.739 217.531 295.288C212.258 299.979 207.923 305.521 202.909 310.385C200.473 312.878 197.801 315.128 194.929 317.103C192.079 319.098 188.854 320.495 185.45 321.212C182.044 321.871 178.524 321.599 175.259 320.424C172.041 319.119 169.085 317.241 166.535 314.882C165.543 313.976 164.562 313.048 163.656 312.089C163.504 311.949 163.36 311.802 163.225 311.647C159.429 307.721 156.097 303.408 152.7 299.138C148.99 294.479 145.27 289.745 141.097 285.442C141.086 285.647 141.086 285.852 141.097 286.057C145.07 290.324 148.824 294.791 152.344 299.439C155.666 303.613 158.933 307.861 162.632 311.765C162.767 311.92 162.911 312.068 163.063 312.207C164.066 313.286 165.123 314.278 166.223 315.27C168.807 317.691 171.811 319.62 175.087 320.964C178.448 322.172 182.073 322.451 185.579 321.772C189.069 321.057 192.373 319.629 195.285 317.578C198.184 315.579 200.885 313.308 203.351 310.795C208.354 305.845 212.679 300.302 217.887 295.633C219.485 294.138 221.304 292.898 223.279 291.956C223.268 291.783 223.268 291.621 223.182 291.46V291.427ZM179.055 242.502C177.944 237.207 177.985 231.734 179.174 226.456L178.818 226.251C177.572 231.633 177.506 237.221 178.624 242.631C179.221 245.851 179.988 249.036 180.921 252.175L181.406 252.261C180.452 249.051 179.668 245.794 179.055 242.502ZM190.454 282.93C189.375 275.942 187.003 269.31 184.792 262.667C183.714 259.367 182.56 256.057 181.557 252.736C181.386 252.716 181.217 252.683 181.05 252.639C182.064 256.078 183.207 259.465 184.285 262.829C186.442 269.461 188.836 276.104 189.871 282.994C190.493 286.407 190.482 289.905 189.839 293.314C189.046 296.694 187.346 299.792 184.922 302.276C182.466 304.745 179.53 306.683 176.295 307.969C173.065 309.286 169.718 310.294 166.298 310.978C165.274 311.215 164.26 311.398 163.236 311.603C163.025 311.631 162.816 311.671 162.61 311.722C156.97 312.736 151.233 313.426 145.637 314.957C142.315 315.917 138.768 317.232 136.546 320.112C135.46 321.567 134.891 323.343 134.929 325.158C134.969 326.936 135.252 328.699 135.77 330.399C137.786 337.171 141.291 343.34 144.461 349.54C147.632 355.741 150.932 362.006 153.088 368.67C153.853 370.991 154.384 373.383 154.673 375.809H154.986C154.699 373.351 154.172 370.928 153.412 368.573C151.255 361.866 148.02 355.633 144.839 349.378C141.658 343.124 138.207 336.977 136.212 330.281C135.284 327.046 134.767 323.174 136.934 320.392C139.102 317.61 142.51 316.348 145.799 315.421C151.438 313.911 157.294 313.264 163.052 312.186C163.257 312.132 163.462 312.11 163.678 312.067C164.584 311.916 165.511 311.711 166.428 311.506C169.878 310.833 173.255 309.825 176.51 308.498C179.821 307.19 182.824 305.211 185.331 302.685C187.82 300.125 189.561 296.933 190.367 293.455C191.039 289.981 191.072 286.415 190.464 282.93H190.454Z" fill="white"/>
<path d="M176.597 315.249C182.124 315.412 187.631 315.985 193.074 316.963C195.77 317.492 198.466 318.128 201.065 318.84C202.391 319.185 203.717 319.487 205.044 319.789C206.428 320.145 207.852 320.326 209.282 320.328C209.303 320.335 209.322 320.349 209.335 320.367C209.349 320.385 209.356 320.408 209.356 320.43C209.356 320.453 209.349 320.475 209.335 320.494C209.322 320.512 209.303 320.526 209.282 320.533C206.636 320.864 203.954 320.751 201.345 320.198C198.617 319.692 195.953 319.055 193.171 318.527C187.671 317.449 182.161 316.37 176.586 315.702C176.305 315.68 176.338 315.238 176.597 315.249Z" fill="#263238"/>
<path d="M163.333 320.91C167.823 320.166 172.353 319.68 176.899 319.454C179.174 319.346 181.438 319.368 183.714 319.454C184.792 319.454 185.871 319.551 186.949 319.626C188.027 319.702 189.321 319.95 190.518 320.015C190.637 320.015 190.648 320.209 190.518 320.209C189.44 320.209 188.254 320.349 187.132 320.381L183.735 320.5C181.46 320.575 179.195 320.672 176.931 320.737C172.391 320.845 167.862 321.007 163.333 321.276C163.106 321.352 163.106 320.942 163.333 320.91Z" fill="#263238"/>
<path d="M164.454 225.819C164.314 228.386 171.162 247.387 182.28 250.072C185.903 250.945 191.597 231.395 191.597 231.395L192.341 230.047L202.833 211.164L183.595 188.929L180.759 185.898C180.759 185.898 178.225 191.29 175.152 197.955C175.001 198.256 174.86 198.569 174.709 198.903C174.558 199.238 174.343 199.626 174.192 199.982C173.717 200.974 173.232 201.998 172.779 203.023C172.434 203.799 172.089 204.554 171.701 205.384C171.313 206.215 171.011 207.013 170.622 207.832C167.323 216.039 164.54 224.741 164.454 225.819Z" fill="#C7A09B"/>
<path d="M175.152 197.955C175.518 204.23 177.246 210.351 180.214 215.892C183.182 221.434 187.32 226.264 192.341 230.047L202.833 211.164L183.595 188.929L180.759 185.898C180.759 185.898 178.225 191.247 175.152 197.955Z" fill="#263238"/>
<path d="M238.3 182.653C237.071 220.525 214.253 224.073 206.09 223.793C198.671 223.545 173.459 221.765 170.763 183.969C168.067 146.172 186.065 134.796 203.049 134.44C220.033 134.084 239.53 144.781 238.3 182.653Z" fill="#C7A09B"/>
<path d="M233.167 175.946C232.315 175.764 231.473 175.537 230.644 175.266C229.719 175.153 228.858 174.736 228.196 174.08C228.028 173.835 227.945 173.542 227.961 173.246C227.977 172.95 228.09 172.667 228.282 172.441C228.734 172.053 229.281 171.792 229.866 171.686C230.452 171.58 231.056 171.632 231.615 171.837C232.811 172.077 233.876 172.754 234.602 173.735C234.752 173.969 234.832 174.242 234.832 174.52C234.831 174.798 234.751 175.07 234.599 175.304C234.448 175.537 234.232 175.722 233.978 175.836C233.724 175.95 233.443 175.988 233.167 175.946Z" fill="#263238"/>
<path d="M207.222 174.446C208.092 174.363 208.956 174.229 209.81 174.047C210.741 174.03 211.641 173.713 212.377 173.142C212.581 172.914 212.703 172.624 212.723 172.319C212.743 172.014 212.659 171.711 212.485 171.459C212.077 171.03 211.563 170.715 210.995 170.546C210.428 170.378 209.825 170.362 209.249 170.5C208.007 170.608 206.852 171.182 206.014 172.106C205.837 172.323 205.727 172.587 205.697 172.865C205.668 173.144 205.721 173.425 205.849 173.673C205.977 173.922 206.176 174.128 206.42 174.265C206.664 174.403 206.943 174.466 207.222 174.446Z" fill="#263238"/>
<path d="M212.722 184.066C212.722 183.968 212.517 184.184 212.517 184.281C212.517 186.869 212.085 189.824 209.724 190.611C209.648 190.611 209.648 190.762 209.724 190.751C212.603 190.439 213.132 186.557 212.722 184.066Z" fill="#263238"/>
<path d="M210.5 181.294C206.359 180.852 205.777 189.166 209.616 189.576C213.455 189.986 213.962 181.672 210.5 181.294Z" fill="#263238"/>
<path d="M208.84 181.617C208.074 182.038 207.308 182.825 206.424 182.847C205.54 182.868 204.709 181.952 204.106 181.067C204.041 180.981 203.965 181.067 203.955 181.154C203.814 182.75 204.31 184.389 206.003 184.777C207.697 185.165 208.764 183.774 209.239 182.2C209.368 181.909 209.142 181.456 208.84 181.617Z" fill="#263238"/>
<path d="M227.064 184.529C227.064 184.432 227.258 184.658 227.247 184.766C226.956 187.333 227.064 190.32 229.329 191.355C229.404 191.355 229.329 191.517 229.329 191.495C226.503 190.87 226.385 186.912 227.064 184.529Z" fill="#263238"/>
<path d="M229.566 182.017C233.728 182.017 233.405 190.353 229.566 190.342C225.727 190.331 226.083 182.006 229.566 182.017Z" fill="#263238"/>
<path d="M231.28 182.631C231.927 183.095 232.542 183.925 233.329 184.011C234.116 184.098 234.947 183.224 235.561 182.383C235.626 182.297 235.68 182.383 235.68 182.48C235.68 184.076 235.076 185.715 233.523 185.963C231.97 186.211 231.151 184.777 230.827 183.181C230.817 182.879 231.022 182.448 231.28 182.631Z" fill="#263238"/>
<path d="M210.942 205.169C211.482 205.838 212.021 206.733 212.927 206.927C213.881 207.015 214.844 206.901 215.752 206.592C215.771 206.589 215.79 206.591 215.808 206.599C215.826 206.606 215.841 206.619 215.851 206.635C215.861 206.652 215.867 206.67 215.866 206.69C215.866 206.709 215.86 206.728 215.849 206.743C215.423 207.205 214.881 207.542 214.279 207.721C213.678 207.899 213.039 207.912 212.431 207.757C211.923 207.562 211.486 207.219 211.175 206.773C210.863 206.327 210.692 205.799 210.684 205.255C210.662 205.104 210.856 205.072 210.942 205.169Z" fill="#263238"/>
<path d="M221.111 201.546C220.014 202.984 218.566 204.116 216.906 204.835C215.992 205.194 214.989 205.258 214.037 205.018C211.956 204.479 211.881 202.571 212.269 200.942C212.475 200.074 212.786 199.233 213.196 198.44C215.435 200.295 218.209 201.384 221.111 201.546Z" fill="#263238"/>
<path d="M216.949 204.888C216.035 205.248 215.032 205.312 214.08 205.072C211.999 204.533 211.924 202.624 212.312 200.996C214.544 201.157 216.798 202.667 216.949 204.888Z" fill="#FF9CBD"/>
<path d="M222.254 196.488C222.254 196.488 222.556 200.359 222.449 202.182C222.449 202.354 221.996 202.408 221.37 202.408C221.37 202.408 221.37 202.408 221.295 202.408C219.721 202.601 218.125 202.358 216.681 201.703C215.237 201.049 214.002 200.009 213.11 198.699C212.991 198.515 213.239 198.343 213.39 198.461C215.611 200.185 218.333 201.139 221.144 201.179C221.295 200.683 220.389 194.558 220.68 194.558C222.083 194.76 223.451 195.155 224.745 195.733C224.336 187.635 222.643 179.665 222.362 171.599C222.365 171.544 222.387 171.491 222.424 171.449C222.461 171.407 222.511 171.379 222.566 171.369C222.62 171.359 222.677 171.368 222.726 171.394C222.775 171.42 222.814 171.462 222.837 171.513C225.209 179.73 225.878 189.036 226.514 197.394C226.611 198.418 222.955 196.833 222.254 196.488Z" fill="#263238"/>
<path d="M173.48 186.988C177.599 186.729 188.286 175.352 188.577 155.457C188.577 155.457 187.111 173.303 185.773 175.945C184.436 178.587 191.748 169.551 192.179 153.505C192.179 153.505 201.086 159.889 208.678 161.981C216.27 164.073 220.896 163.986 221.435 163.436C221.974 162.886 210.813 159.414 207.783 155.953C207.783 155.953 227.97 165.248 237.265 165.917C238.344 165.992 239.541 143.886 225.144 134.569C210.748 125.252 188.027 135.453 181.934 141.384C181.934 141.384 174.753 142.462 166.988 153.095C159.224 163.728 169.048 187.268 173.48 186.988Z" fill="#263238"/>
<path d="M204.785 196.262C202.6 195.889 200.563 194.911 198.905 193.439C197.248 191.967 196.036 190.06 195.407 187.934C194.778 185.808 194.758 183.549 195.348 181.412C195.938 179.275 197.115 177.346 198.745 175.844C200.376 174.343 202.394 173.328 204.572 172.915C206.75 172.502 209 172.707 211.067 173.508C213.134 174.309 214.936 175.673 216.267 177.446C217.598 179.219 218.406 181.329 218.599 183.537C218.732 185.093 218.556 186.661 218.082 188.149C217.607 189.637 216.844 191.017 215.835 192.209C214.826 193.401 213.591 194.383 212.202 195.097C210.813 195.811 209.296 196.243 207.74 196.37C206.754 196.459 205.761 196.422 204.785 196.262ZM208.451 174.371C207.603 174.232 206.742 174.196 205.885 174.263C203.271 174.48 200.838 175.686 199.082 177.634C197.326 179.582 196.378 182.126 196.432 184.748C196.485 187.37 197.537 189.873 199.371 191.748C201.206 193.622 203.685 194.727 206.306 194.837C208.926 194.947 211.49 194.054 213.476 192.34C215.461 190.626 216.718 188.22 216.992 185.612C217.265 183.003 216.534 180.389 214.947 178.3C213.361 176.212 211.038 174.807 208.451 174.371Z" fill="#37474F"/>
<path d="M232.046 197.448C227.56 196.693 224.26 191.409 224.562 185.219C224.654 182.254 225.672 179.392 227.474 177.035C228.186 175.976 229.16 175.119 230.301 174.547C231.442 173.975 232.711 173.708 233.986 173.771C235.26 173.834 236.497 174.225 237.576 174.906C238.655 175.588 239.54 176.536 240.144 177.66C241.707 180.179 242.443 183.124 242.247 186.082C241.924 192.628 237.697 197.761 232.822 197.524C232.562 197.514 232.303 197.489 232.046 197.448ZM234.505 175.428C234.308 175.395 234.11 175.373 233.912 175.363C232.895 175.359 231.893 175.599 230.988 176.062C230.084 176.526 229.304 177.199 228.714 178.027C227.129 180.126 226.232 182.665 226.147 185.295C225.878 190.967 228.886 195.744 232.898 195.938C236.909 196.132 240.382 191.679 240.662 186.007C240.844 183.381 240.199 180.764 238.818 178.523C238.355 177.734 237.732 177.051 236.989 176.518C236.246 175.985 235.4 175.614 234.505 175.428Z" fill="#37474F"/>
<path d="M218.135 184.885L217.175 183.623C219.041 182.2 223.311 180.388 226.061 183.623L224.843 184.702C222.384 181.725 218.308 184.755 218.135 184.885Z" fill="#37474F"/>
<path d="M165.037 185.349L163.667 184.551C164.034 183.915 167.398 178.275 170.978 177.876C174.321 177.509 195.5 180.55 196.406 180.68L196.201 182.243C190.13 181.359 173.76 179.159 171.172 179.45C168.822 179.72 165.964 183.807 165.037 185.349Z" fill="#37474F"/>
<path d="M170.245 197.922C170.78 198.212 171.348 198.433 171.938 198.58C172.51 198.761 173.107 198.848 173.707 198.839C174.482 198.864 175.252 198.713 175.96 198.397C176.52 198.164 177.043 197.852 177.513 197.47C178.18 196.926 178.746 196.269 179.185 195.528L178.311 185.23C178.311 185.23 171.507 172.538 165.824 174.802C160.141 177.067 164.26 194.86 170.245 197.922Z" fill="#C7A09B"/>
<path d="M167.129 179.86C167.108 179.856 167.087 179.86 167.07 179.871C167.052 179.881 167.039 179.898 167.032 179.917C167.026 179.937 167.026 179.958 167.034 179.977C167.042 179.996 167.056 180.012 167.075 180.021C171.248 182.318 173.07 186.664 174.181 191.075C173.103 189.295 171.399 188.195 169.037 189.489C168.919 189.554 169.037 189.748 169.134 189.737C169.934 189.583 170.761 189.681 171.503 190.017C172.245 190.353 172.864 190.911 173.275 191.614C173.96 192.793 174.514 194.044 174.925 195.345C175.076 195.765 175.809 195.636 175.723 195.172V195.065C176.478 189.479 173.06 181.164 167.129 179.86Z" fill="#263238"/>
<path d="M170.957 196.402C170.984 196.749 171.113 197.08 171.328 197.354C171.543 197.627 171.835 197.831 172.166 197.938C172.497 198.046 172.853 198.053 173.188 197.958C173.523 197.863 173.822 197.671 174.048 197.406C174.273 197.141 174.415 196.815 174.455 196.469C174.495 196.123 174.432 195.773 174.273 195.464C174.114 195.154 173.867 194.899 173.562 194.73C173.258 194.561 172.91 194.486 172.564 194.515C172.101 194.553 171.672 194.773 171.371 195.127C171.07 195.481 170.921 195.939 170.957 196.402Z" fill="white"/>
<path d="M167.689 193.35C167.709 193.595 167.801 193.827 167.953 194.019C168.105 194.212 168.31 194.354 168.543 194.43C168.776 194.505 169.027 194.51 169.262 194.443C169.498 194.377 169.709 194.242 169.868 194.056C170.027 193.869 170.128 193.64 170.157 193.397C170.186 193.154 170.142 192.908 170.031 192.689C169.921 192.471 169.748 192.29 169.534 192.17C169.321 192.049 169.077 191.995 168.832 192.013C168.669 192.026 168.51 192.07 168.365 192.144C168.219 192.218 168.089 192.32 167.983 192.444C167.876 192.568 167.796 192.712 167.746 192.868C167.695 193.024 167.676 193.187 167.689 193.35Z" fill="white"/>
<path d="M139.339 239.116C113.534 279.112 79.5655 346.014 98.0594 358.814C128.458 379.907 212.84 386.658 232.143 387.412C240.468 387.747 252.632 332.502 246.572 325.946C240.511 319.389 152.031 321.632 150.975 316.24C150.382 313.21 155.418 286.337 161.381 252.919C168.272 214.465 146.704 227.664 139.339 239.116Z" fill="#C7A09B"/>
<path d="M231.776 322.722C231.776 322.722 257.032 320.489 273.628 319.81C282.88 319.433 298.797 320.187 305.72 323.045C316.083 327.272 356.705 351.589 351.011 361.564C345.867 370.601 313.624 345.27 313.624 345.27C313.624 345.27 348.423 367.916 340.227 377.686C332.032 387.456 299.4 353.962 299.4 353.962C299.4 353.962 334.631 378.063 324.602 386.766C317.053 393.344 285.781 364.702 285.781 364.702C285.781 364.702 315.921 385.633 308.426 392.74C300.123 400.59 269.605 375.96 269.605 375.96C247.477 390.799 230.881 388.804 219.235 385.989C216.388 385.277 231.776 322.722 231.776 322.722Z" fill="#C7A09B"/>
<path d="M302.096 336.643C306.28 339.156 310.529 341.668 314.476 344.547C318.423 347.427 322.273 350.446 325.939 353.681C334.911 361.607 339.3 367.98 338.987 367.614C331.568 358.987 317.603 348.483 313.656 345.604C309.71 342.725 305.925 339.684 301.989 336.783C301.881 336.708 301.989 336.578 302.096 336.643Z" fill="#263238"/>
<path d="M291.442 350.694C296.651 354.145 301.945 357.369 306.992 361.046C312.039 364.724 316.471 368.595 321.237 372.606C321.604 372.908 321.324 373.005 320.935 372.714C316.018 368.908 311.176 365.78 306.216 362.038C301.255 358.297 296.424 354.36 291.356 350.813C291.27 350.759 291.367 350.651 291.442 350.694Z" fill="#263238"/>
<path d="M280.13 361.122C288.347 365.975 295.669 372.348 302.7 378.764C303.045 379.077 302.7 379.163 302.291 378.861C294.893 372.855 289.145 368.078 279.958 361.413C279.817 361.305 279.958 361.025 280.13 361.122Z" fill="#263238"/>
<path d="M106.341 289.874L159.979 285.27C159.979 285.27 164.185 258.537 164.422 243.418C164.724 223.415 157.369 218.616 140.935 236.819C129.947 249.004 106.341 289.874 106.341 289.874Z" fill="#00BBA7"/>
<path d="M153.444 285.852C154.016 285.701 159.505 285.043 159.914 285.108C160.324 281.948 160.702 278.789 161.154 275.64C161.37 274.065 161.629 272.491 161.898 270.917C162.168 269.342 162.459 267.218 162.729 265.687C162.729 265.449 163.074 265.471 163.052 265.687C162.901 267.703 162.729 269.213 162.589 270.96C162.459 272.513 162.297 274.087 162.103 275.64C161.694 278.929 161.392 282.455 160.809 285.712C160.809 285.971 154.026 286.068 153.455 286.014C153.347 286.035 153.358 285.873 153.444 285.852Z" fill="#263238"/>
<path d="M111.356 284.321C119.109 283.113 126.873 282.014 134.691 281.269C138.584 280.892 142.488 280.569 146.402 280.321C150.317 280.073 154.253 280.202 158.146 279.889C158.183 279.899 158.216 279.92 158.239 279.951C158.263 279.981 158.276 280.018 158.276 280.056C158.276 280.095 158.263 280.132 158.239 280.162C158.216 280.192 158.183 280.214 158.146 280.223C154.242 280.331 150.317 280.978 146.424 281.302C142.531 281.625 138.617 281.97 134.713 282.326C126.927 283.06 119.12 283.761 111.356 284.666C111.118 284.688 111.118 284.354 111.356 284.321Z" fill="#263238"/>
<path d="M351.022 361.543C351.31 360.9 351.443 360.198 351.411 359.494C351.379 358.79 351.183 358.103 350.838 357.488C350.27 356.207 349.545 355.001 348.682 353.897C346.919 351.69 344.97 349.637 342.859 347.761C338.618 344.007 334.145 340.524 329.465 337.334C324.785 334.099 320.073 330.96 315.242 328.06C312.84 326.591 310.314 325.335 307.693 324.307C306.399 323.811 305.062 323.423 303.692 323.013C302.37 322.579 301.019 322.24 299.649 321.999C296.873 321.554 294.076 321.255 291.27 321.104C288.455 320.932 285.63 320.813 282.794 320.781C277.132 320.684 271.471 320.781 265.799 320.975C260.127 321.169 254.465 321.471 248.804 321.838C243.142 322.204 237.481 322.646 231.809 323.078C226.266 322.571 220.723 322.096 215.18 321.546C220.734 321.784 226.298 322.096 231.863 322.377H231.798C237.449 321.73 243.11 321.18 248.771 320.694C254.433 320.209 260.116 319.821 265.799 319.562C271.482 319.303 277.175 319.174 282.869 319.228C288.598 319.174 294.322 319.589 299.983 320.468C301.408 320.728 302.814 321.088 304.188 321.546C305.536 321.956 306.927 322.366 308.275 322.894C310.95 323.975 313.526 325.285 315.975 326.809C320.871 329.763 325.529 333.042 330.134 336.385C334.763 339.699 339.162 343.323 343.301 347.233C345.366 349.224 347.257 351.388 348.951 353.703C349.804 354.857 350.507 356.114 351.043 357.445C351.354 358.084 351.513 358.786 351.51 359.496C351.506 360.207 351.339 360.907 351.022 361.543Z" fill="#263238"/>
<path d="M344.789 389.03H212.582V394.961H344.789V389.03Z" fill="#343A40"/>
<path d="M344.8 389.03H278.254V394.961H344.8V389.03Z" fill="#343A40"/>
<path d="M282.287 394.961H411.13L427.974 307.452H299.131L282.287 394.961Z" fill="#343A40"/>
<path d="M287.528 394.961H416.371L433.215 307.452H304.372L287.528 394.961Z" fill="#343A40"/>
<path d="M352.532 351.201C352.415 352.203 352.513 353.218 352.821 354.179C353.128 355.14 353.638 356.023 354.315 356.771C354.992 357.518 355.821 358.113 356.747 358.513C357.672 358.914 358.673 359.113 359.681 359.095C361.817 359.056 363.864 358.235 365.436 356.789C367.008 355.342 367.995 353.37 368.211 351.244C368.32 350.247 368.215 349.237 367.904 348.283C367.593 347.329 367.082 346.453 366.406 345.711C365.729 344.97 364.903 344.381 363.982 343.983C363.06 343.585 362.065 343.388 361.062 343.405C358.934 343.442 356.894 344.255 355.323 345.691C353.752 347.126 352.76 349.086 352.532 351.201Z" fill="white"/>
<path d="M76.9144 198.419C76.9144 197.761 76.653 197.131 76.1879 196.665C75.7228 196.2 75.0919 195.939 74.4341 195.939C73.7763 195.939 73.1455 196.2 72.6803 196.665C72.2152 197.131 71.9539 197.761 71.9539 198.419V215.781C71.9539 216.439 72.2152 217.069 72.6803 217.535C73.1455 218 73.7763 218.261 74.4341 218.261C75.0919 218.261 75.7228 218 76.1879 217.535C76.653 217.069 76.9144 216.439 76.9144 215.781V198.419Z" fill="url(#paint0_linear_56_9)"/>
<path d="M57.0724 203.379C57.0724 202.721 56.8111 202.091 56.346 201.625C55.8809 201.16 55.25 200.899 54.5922 200.899C53.9344 200.899 53.3035 201.16 52.8384 201.625C52.3733 202.091 52.112 202.721 52.112 203.379V215.78C52.112 216.438 52.3733 217.069 52.8384 217.534C53.3035 217.999 53.9344 218.261 54.5922 218.261C55.25 218.261 55.8809 217.999 56.346 217.534C56.8111 217.069 57.0724 216.438 57.0724 215.78V203.379Z" fill="url(#paint1_linear_56_9)"/>
<path d="M47.1516 210.82C47.1516 210.162 46.8903 209.531 46.4251 209.066C45.96 208.601 45.3292 208.34 44.6714 208.34C44.0136 208.34 43.3827 208.601 42.9176 209.066C42.4524 209.531 42.1911 210.162 42.1911 210.82V215.781C42.1911 216.438 42.4524 217.069 42.9176 217.534C43.3827 217.999 44.0136 218.261 44.6714 218.261C45.3292 218.261 45.96 217.999 46.4251 217.534C46.8903 217.069 47.1516 216.438 47.1516 215.781V210.82Z" fill="url(#paint2_linear_56_9)"/>
<path d="M64.5132 205.859C65.171 205.859 65.8018 206.121 66.267 206.586C66.7321 207.051 66.9934 207.682 66.9934 208.34V215.78C66.9934 216.438 66.7321 217.069 66.267 217.534C65.8018 217.999 65.171 218.261 64.5132 218.261C63.8554 218.261 63.2245 217.999 62.7594 217.534C62.2942 217.069 62.0329 216.438 62.0329 215.78V208.34C62.0329 207.682 62.2942 207.051 62.7594 206.586C63.2245 206.121 63.8554 205.859 64.5132 205.859Z" fill="url(#paint3_linear_56_9)"/>
<path fill-rule="evenodd" clip-rule="evenodd" d="M69.4737 183.538C68.8159 183.538 68.1851 183.276 67.7199 182.811C67.2548 182.346 66.9935 181.715 66.9935 181.057C66.9935 180.4 67.2548 179.769 67.7199 179.304C68.1851 178.838 68.8159 178.577 69.4737 178.577H76.9144C77.5722 178.577 78.2031 178.838 78.6682 179.304C79.1334 179.769 79.3947 180.4 79.3947 181.057V188.498C79.3947 189.156 79.1334 189.787 78.6682 190.252C78.2031 190.717 77.5722 190.978 76.9144 190.978C76.2566 190.978 75.6258 190.717 75.1606 190.252C74.6955 189.787 74.4342 189.156 74.4342 188.498V187.045L65.0267 196.452C64.5615 196.917 63.9308 197.178 63.2731 197.178C62.6155 197.178 61.9847 196.917 61.5196 196.452L55.8324 190.765L45.1848 201.413C44.717 201.864 44.0905 202.114 43.4402 202.109C42.7899 202.103 42.1678 201.842 41.708 201.382C41.2481 200.923 40.9873 200.301 40.9816 199.65C40.9759 199 41.2259 198.373 41.6777 197.906L54.0789 185.504C54.544 185.039 55.1748 184.778 55.8324 184.778C56.4901 184.778 57.1208 185.039 57.586 185.504L63.2731 191.192L70.9271 183.538H69.4737Z" fill="url(#paint4_linear_56_9)"/>
<g clip-path="url(#clip0_56_9)">
<path d="M42.2315 56.9879C42.2315 64.7352 48.5062 64.7352 56.3176 64.7352C64.129 64.7352 70.4037 64.7352 70.4037 56.9879C70.4037 49.2405 64.0649 36.563 56.3176 36.563C48.5702 36.563 42.2315 49.1765 42.2315 56.9879Z" fill="#DBB471"/>
<path opacity="0.5" d="M42.2315 56.9882C42.2315 54.3631 42.9358 51.1617 44.2164 48.0884C43.9603 50.0732 44.4725 53.5948 50.5551 54.9394C59.1989 56.7962 54.7169 59.2292 58.1104 59.5494C60.9916 59.8055 68.675 58.653 70.2116 54.2991C70.3397 55.2595 70.4678 56.1559 70.4678 57.0523C70.4037 64.7356 64.065 64.7356 56.3176 64.7356C48.5703 64.7356 42.2315 64.7356 42.2315 56.9882Z" fill="#89664C"/>
<path d="M52.5399 53.2744C52.796 51.9938 53.8845 51.6096 55.037 51.5456V49.7528C54.7168 49.8809 54.3327 50.073 54.0766 50.265C53.5643 50.5852 53.0521 49.7528 53.5643 49.4327C54.0125 49.1766 54.5248 48.9205 55.037 48.7284V46.6155C55.037 45.9752 55.9974 45.9752 55.9974 46.6155V48.4723C56.5096 48.4082 57.0218 48.4082 57.5341 48.4723C57.5981 48.0241 57.7261 47.5759 57.8542 47.1277C57.9823 46.4874 58.9427 46.7435 58.7506 47.3838C58.6225 47.832 58.5585 48.2802 58.4304 48.7284C58.4945 48.7284 58.4945 48.7284 58.5585 48.7924C59.8391 49.3046 60.6714 50.5852 59.711 51.8017C59.2628 52.378 58.6866 52.57 58.0463 52.6981C57.9823 53.5305 57.9823 54.3628 57.9823 55.1952C58.4304 54.9391 58.8146 54.5549 59.1348 54.2348C59.5829 53.7866 60.2232 54.4909 59.8391 54.9391C59.2628 55.5794 58.6225 56.0275 57.9823 56.3477C57.9823 57.052 57.9182 57.7563 57.8542 58.4606C57.7902 59.1009 56.8298 59.1009 56.8938 58.4606C56.9578 57.8203 57.0218 57.2441 57.0218 56.6038C56.6377 56.6678 56.2535 56.6678 55.8693 56.6678C55.8053 57.3081 55.7413 57.9484 55.6773 58.6527C55.6132 59.293 54.6528 59.293 54.7168 58.6527C54.7809 57.9484 54.8449 57.2441 54.9089 56.4757C53.5003 55.9635 52.2197 54.875 52.5399 53.2744ZM55.9974 49.4327V51.5456C56.3175 51.5456 56.5736 51.6096 56.8298 51.6096H57.1499L57.342 49.3046C56.8938 49.3046 56.4456 49.3687 55.9974 49.4327ZM58.3024 51.4816C58.5585 51.4175 58.8146 51.2255 59.0707 51.0334C59.647 50.4571 58.8146 49.9449 58.3024 49.6888C58.2384 50.3291 58.1743 50.9053 58.1103 51.5456C58.1743 51.5456 58.2384 51.5456 58.3024 51.4816ZM56.1895 55.5794C56.5096 55.6434 56.7657 55.5794 57.0218 55.5153C57.0859 54.5549 57.0859 53.5945 57.0859 52.57C56.7017 52.57 56.3175 52.506 55.9334 52.506C55.9334 53.5305 55.8693 54.4909 55.8693 55.5153C55.9974 55.5794 56.0614 55.5794 56.1895 55.5794ZM54.0766 54.875C54.3327 55.0671 54.6528 55.1952 54.9089 55.3232C54.9729 54.3628 54.9729 53.4664 54.9729 52.506H54.6528C53.4363 52.7621 53.1161 54.1067 54.0766 54.875Z" fill="#89664C"/>
<path d="M55.0369 62.1744H56.5095V64.7355L50.5549 67.9369L37.1091 63.7751V61.5341L42.0393 58.6528L55.0369 62.1744Z" fill="#699635"/>
<path d="M56.3176 60.7015C56.3176 60.7015 54.7809 63.1986 50.427 65.3755C50.427 65.3755 43.6401 65.0554 37.1092 60.7015C37.1092 60.7015 40.8869 58.8447 41.9753 56.4116C41.9753 56.4116 44.5365 59.9972 56.3176 60.7015Z" fill="#83BF4F"/>
<path d="M59.1988 62.1102L57.7901 62.0461L57.5981 64.4152L63.1685 67.9367L76.5503 65.0555L76.7424 62.9425L72.1964 59.8052L59.1988 62.1102Z" fill="#699635"/>
<path d="M58.1103 60.6377C58.1103 60.6377 59.4549 63.1347 63.4887 65.5038C63.4887 65.5038 70.0835 65.6959 76.8065 62.1743C76.8065 62.1743 73.2209 60.1254 72.3885 57.6924C72.3885 57.6924 69.5713 60.8938 58.1103 60.6377Z" fill="#83BF4F"/>
<path d="M61.3119 61.3421C61.3119 61.3421 61.504 61.8544 60.6076 61.9184L62.9766 63.9032C62.9766 63.9032 64.3852 63.7752 64.7053 64.7356C64.7053 64.7356 70.4678 64.0953 74.1815 62.4306C74.1815 62.4306 73.4131 61.8544 74.3735 61.4702C74.3735 61.4702 73.2851 60.7019 73.029 59.9975C73.029 59.9975 72.0045 60.1256 71.6844 59.3573C71.5563 59.2932 67.7146 61.5982 61.3119 61.3421Z" stroke="#699635" stroke-width="0.640278" stroke-miterlimit="10"/>
<path d="M71.1721 62.2385C70.5002 62.2385 69.9556 61.8658 69.9556 61.4061C69.9556 60.9464 70.5002 60.5737 71.1721 60.5737C71.844 60.5737 72.3886 60.9464 72.3886 61.4061C72.3886 61.8658 71.844 62.2385 71.1721 62.2385Z" fill="#699635"/>
<path d="M64.6413 60.3815C64.6413 60.3815 66.1139 62.3023 69.3153 64.9275L69.1233 66.6562L71.3642 66.144L71.4923 64.2872C71.4923 64.2872 68.2269 61.2779 67.5226 59.8053C67.5866 59.8053 66.4341 60.1894 64.6413 60.3815ZM49.8509 59.9333C49.8509 59.9333 49.2746 61.47 44.9207 64.2872V66.144L42.4237 65.3757V63.4548C42.4237 63.4548 45.433 61.3419 47.2257 59.229L49.8509 59.9333Z" fill="#F9F3D9"/>
<path d="M53.5004 57.8843L54.909 57.8203L55.037 60.4454L49.3385 64.095L35.9567 60.4454L35.8927 58.1404L40.5667 54.875L53.5004 57.8843Z" fill="#699635"/>
<path d="M54.6528 56.2839C54.6528 56.2839 53.2442 58.9731 49.0824 61.4061C49.0824 61.4061 42.4235 61.4061 35.8286 57.3084C35.8286 57.3084 39.4782 55.1955 40.3746 52.5703C40.3746 52.5703 43.1278 56.1559 54.6528 56.2839Z" fill="#83BF4F"/>
<path d="M51.7716 56.9882C51.7716 56.9882 51.4515 57.5005 52.4759 57.6925L49.7867 59.8055C49.7867 59.8055 48.2501 59.4213 47.7378 60.3177C47.7378 60.3177 41.3351 59.1652 38.3898 57.6285C38.3898 57.6285 39.3502 57.1803 38.3898 56.6041C38.3898 56.6041 39.5423 55.6436 39.9905 55.0034C39.9905 55.0034 41.079 55.3235 41.6552 54.5552C41.6552 54.6192 43.9602 56.6681 51.7716 56.9882Z" stroke="#699635" stroke-width="0.640278" stroke-miterlimit="10"/>
<path d="M46.8415 58.5888C47.0976 58.9089 47.93 59.0369 48.6343 58.8449C49.3386 58.6528 49.6587 58.2046 49.4026 57.8844C49.1465 57.5643 48.3142 57.4363 47.6099 57.6283C46.9055 57.8204 46.5854 58.2046 46.8415 58.5888Z" fill="#699635"/>
<path d="M48.1221 55.7717C48.1221 55.7717 46.5855 57.8206 43.3201 60.5738L43.3841 62.4946L41.1431 61.8543L41.0791 59.8054C41.0791 59.8054 44.4085 56.604 45.2409 55.0674C45.1769 55.0674 46.2653 55.5156 48.1221 55.7717Z" fill="#F9F3D9"/>
<path d="M47.3537 28.2395C47.3537 32.1452 52.4119 38.484 56.3176 38.484C60.2233 38.484 65.2815 32.7855 65.2815 28.8798C65.2815 24.9741 64.7052 28.8798 60.7995 28.8798C60.2233 28.8798 57.5341 26.959 56.3176 26.959C55.4852 26.959 53.1162 28.8798 51.8356 28.8798C48.4422 28.8798 47.3537 25.2943 47.3537 28.2395Z" fill="#DBB471"/>
<path d="M57.4702 35.4751C57.8544 35.7312 59.7112 35.5391 60.2874 35.9873C61.0557 36.5636 59.9673 37.9082 60.7356 38.7405C62.2723 40.2772 63.4888 42.0059 63.1046 42.9664C62.4644 44.6311 61.2478 39.893 60.1594 41.6858C59.0709 43.4786 59.263 40.4693 57.5982 42.0059C55.9335 43.5426 57.3421 39.2528 55.7414 41.1096C54.1407 42.9664 54.0767 45.0793 52.9242 45.0793C51.5796 45.0793 54.3328 40.0211 52.54 41.2376C50.7473 42.4541 48.7624 42.0059 50.5552 40.1491C51.1314 39.5729 51.8998 38.5484 52.7962 37.6521C53.1163 37.3319 52.8602 35.6672 53.1803 35.4111C53.5645 35.0909 54.5249 36.1154 54.9091 35.9233C55.6774 35.5391 55.4213 36.2434 56.5738 36.4355C57.3421 36.6916 56.7019 34.9629 57.4702 35.4751Z" fill="#89664C"/>
<path d="M64.8332 39.2522C62.3361 36.8832 57.7901 38.2278 55.1009 39.3803C52.4758 40.5328 50.8751 36.8832 52.5398 35.0264C53.5002 33.9379 55.0369 35.2185 55.6132 35.9868C56.2534 36.7552 56.7657 37.5875 57.47 38.3558C58.4944 39.5083 60.9915 38.5479 60.2232 36.9472C59.3908 35.2825 55.8693 37.2033 54.7168 37.5235C52.4758 38.1638 50.1068 38.4199 47.8658 37.5875C47.0975 37.3314 47.4176 36.0508 48.1859 36.371C50.683 37.2674 53.1801 36.6911 55.5491 35.9228C56.7657 35.5386 58.6865 34.5142 59.9671 35.0904C63.6166 36.8192 60.2232 41.7493 57.1498 39.8285C56.4455 39.3803 55.9973 38.676 55.4851 38.0357C55.165 37.6515 53.5643 35.2185 53.1801 36.435C52.988 37.0753 53.1801 38.2278 53.8844 38.4199C54.3326 38.612 55.229 37.9717 55.6772 37.8436C56.5095 37.5235 57.3419 37.2674 58.2383 37.0753C60.6073 36.5631 63.8087 36.6911 65.6655 38.4199C66.3058 38.9321 65.4094 39.8285 64.8332 39.2522Z" fill="#E8E8E8"/>
<path d="M48.122 27.2791C48.7623 27.7913 49.9148 28.8798 51.8356 28.8798C53.1162 28.8798 55.4852 26.959 56.3176 26.959C57.5341 26.959 60.2233 28.8798 60.7995 28.8798C62.9124 28.8798 64.0649 27.7913 64.6412 27.3432C64.6412 27.3432 63.9369 30.2244 61.7599 31.697C60.1592 32.7215 60.3513 31.505 59.519 30.3525C58.6866 29.2 58.1104 28.6237 56.6377 31.505C55.8694 33.1057 54.3967 27.1511 53.2442 29.0719C51.1313 32.5934 50.363 30.6726 48.122 27.2791Z" fill="#89664C"/>
<path d="M43.2559 60.5095L43.32 62.4304L41.079 61.7901L41.015 59.7412C41.015 59.8052 42.3595 60.3175 43.2559 60.5095ZM44.9207 64.3512V66.208L42.4236 65.4397V63.5188C42.4876 63.4548 43.1279 63.839 44.9207 64.3512ZM69.3152 64.8634L69.1232 66.6562L71.3641 66.144L71.4922 64.2872C71.5562 64.2872 70.6598 64.6073 69.3152 64.8634Z" fill="#DBB471"/>
</g>
<path d="M122.098 25.9966C109.655 25.9966 99.568 36.0834 99.568 48.5264C99.568 60.9694 109.655 71.0562 122.098 71.0562C134.541 71.0562 144.628 60.9694 144.628 48.5264C144.628 36.0834 134.541 25.9966 122.098 25.9966ZM124.043 60.7416V63.9147H121.008V60.7772C116.027 60.0951 113.846 56.0028 113.846 56.0028L116.947 53.4094C116.947 53.4094 118.926 56.8553 122.507 56.8553C124.485 56.8553 125.986 55.7966 125.986 53.9876C125.986 49.7588 114.592 50.2719 114.592 42.4266C114.592 39.0163 117.289 36.5593 121.006 35.978V32.8079H124.042V35.978C126.634 36.319 129.703 37.6831 129.703 40.6176V42.8684H125.679V41.7771C125.679 40.6517 124.245 39.9014 122.64 39.9014C120.594 39.9014 119.095 40.9245 119.095 42.3568C119.095 46.6879 130.489 45.6307 130.489 53.8512C130.489 57.2305 127.965 60.1603 124.043 60.7416Z" fill="#00A6F4"/>
<path d="M394.474 57.7827H350.082V79.979H394.474V57.7827Z" fill="#CFD8DC"/>
<path d="M394.474 79.9785H350.082V84.6514H394.474V79.9785Z" fill="#B0BEC5"/>
<path d="M368.773 63.6235H354.754V84.6516H368.773V63.6235Z" fill="#455A64"/>
<path d="M389.801 63.6235H373.446V76.474H389.801V63.6235Z" fill="#E3F2FD"/>
<path d="M388.633 64.792H374.614V75.306H388.633V64.792Z" fill="#1E88E5"/>
<path d="M357.675 74.7212C358.025 74.7212 358.259 74.9548 358.259 75.3053V77.6418C358.259 77.9922 358.025 78.2259 357.675 78.2259C357.325 78.2259 357.091 77.9922 357.091 77.6418V75.3053C357.091 74.9548 357.325 74.7212 357.675 74.7212Z" fill="#90A4AE"/>
<path d="M372.278 61.2872C370.342 61.2872 368.773 59.7181 368.773 57.7825C368.773 55.8469 370.342 54.2778 372.278 54.2778C374.213 54.2778 375.782 55.8469 375.782 57.7825C375.782 59.7181 374.213 61.2872 372.278 61.2872Z" fill="#558B2F"/>
<path d="M358.259 61.2872C356.323 61.2872 354.754 59.7181 354.754 57.7825C354.754 55.8469 356.323 54.2778 358.259 54.2778C360.195 54.2778 361.764 55.8469 361.764 57.7825C361.764 59.7181 360.195 61.2872 358.259 61.2872Z" fill="#558B2F"/>
<path d="M386.296 61.2872C384.361 61.2872 382.792 59.7181 382.792 57.7825C382.792 55.8469 384.361 54.2778 386.296 54.2778C388.232 54.2778 389.801 55.8469 389.801 57.7825C389.801 59.7181 388.232 61.2872 386.296 61.2872Z" fill="#558B2F"/>
<path d="M353.586 42.5952H390.969C392.254 42.5952 393.306 43.6466 393.306 44.9317V48.4363H351.25V44.9317C351.25 43.6466 352.301 42.5952 353.586 42.5952ZM375.782 48.4363H368.773V57.7822H375.782V48.4363ZM357.091 48.4363H362.932L361.764 57.7822H354.754L357.091 48.4363ZM387.465 48.4363H381.624L382.792 57.7822H389.801L387.465 48.4363Z" fill="#00A6F4"/>
<path d="M365.268 61.2872C363.333 61.2872 361.764 59.7181 361.764 57.7825C361.764 55.8469 363.333 54.2778 365.268 54.2778C367.204 54.2778 368.773 55.8469 368.773 57.7825C368.773 59.7181 367.204 61.2872 365.268 61.2872Z" fill="#00BBA7"/>
<path d="M347.745 57.7825C347.745 59.7685 349.264 61.2872 351.25 61.2872C353.236 61.2872 354.754 59.7685 354.754 57.7825C354.754 55.7965 353.236 54.2778 351.25 54.2778L347.745 57.7825Z" fill="#00BBA7"/>
<path d="M379.287 61.2872C377.352 61.2872 375.782 59.7181 375.782 57.7825C375.782 55.8469 377.352 54.2778 379.287 54.2778C381.223 54.2778 382.792 55.8469 382.792 57.7825C382.792 59.7181 381.223 61.2872 379.287 61.2872Z" fill="#00BBA7"/>
<path d="M396.811 57.7825C396.811 59.7685 395.292 61.2872 393.306 61.2872C391.32 61.2872 389.801 59.7685 389.801 57.7825C389.801 55.7965 391.32 54.2778 393.306 54.2778L396.811 57.7825Z" fill="#00BBA7"/>
<path d="M362.932 48.4365H368.773V57.7823H361.764L362.932 48.4365ZM351.25 48.4365H357.091L354.754 57.7823H347.745L351.25 48.4365ZM381.624 48.4365H375.782V57.7823H382.792L381.624 48.4365ZM393.306 48.4365H387.465L389.801 57.7823H396.811L393.306 48.4365Z" fill="#00BBA7"/>
<g clip-path="url(#clip1_56_9)">
<path d="M309.852 55.4355C309.672 55.2342 309.468 55.0056 309.313 54.9754C309.062 54.9861 308.819 55.0643 308.608 55.2018L308.613 55.1983C308.36 55.3474 308.077 55.4401 307.784 55.47L307.775 55.4707H307.768C307.678 55.47 307.588 55.4522 307.504 55.4182L307.509 55.4197C307.156 55.273 307.012 54.8647 306.876 54.4693C306.821 54.2312 306.708 54.0104 306.547 53.8266L306.549 53.828C306.424 53.7676 306.286 53.7425 306.148 53.7554H306.151C306.046 53.7554 305.936 53.7619 305.825 53.7683C305.705 53.7765 305.587 53.7808 305.473 53.7813C305.336 53.794 305.199 53.7798 305.068 53.7393C304.937 53.6988 304.815 53.633 304.71 53.5455L304.711 53.5469C304.598 53.3856 304.52 53.2023 304.483 53.0091C304.445 52.8158 304.448 52.6167 304.492 52.4247L304.491 52.4341C304.533 52.1882 304.512 51.9357 304.43 51.7L304.433 51.7108C304.252 51.5522 304.036 51.4404 303.802 51.3852L303.792 51.383C303.396 51.2457 302.987 51.1034 302.841 50.7504C302.8 50.56 302.798 50.363 302.837 50.172C302.876 49.981 302.954 49.8002 303.066 49.6411L303.063 49.6454C303.195 49.4346 303.271 49.1939 303.284 48.9459V48.9423C303.254 48.7863 303.025 48.5829 302.824 48.4031C302.509 48.1242 302.184 47.8345 302.184 47.447C302.184 47.0595 302.509 46.7698 302.823 46.4887C303.025 46.309 303.253 46.1048 303.283 45.9495C303.269 45.699 303.191 45.4564 303.057 45.2442L303.061 45.25C302.948 45.0897 302.871 44.9077 302.833 44.7157C302.795 44.5237 302.798 44.3258 302.841 44.135L302.84 44.1443C302.987 43.7913 303.395 43.6483 303.79 43.5117C304.039 43.4534 304.255 43.3391 304.433 43.1824L304.432 43.1839C304.513 42.9486 304.533 42.6962 304.488 42.4513L304.489 42.4599C304.447 42.2683 304.445 42.07 304.483 41.8776C304.521 41.6851 304.599 41.5027 304.712 41.342L304.709 41.3463C304.815 41.2591 304.937 41.1936 305.068 41.1536C305.2 41.1136 305.337 41.1 305.474 41.1134H305.47C305.585 41.1134 305.703 41.1199 305.822 41.1263C305.933 41.1328 306.043 41.1393 306.148 41.1393C306.287 41.152 306.426 41.1264 306.55 41.0652L306.546 41.0674C306.7 40.8905 306.815 40.6749 306.871 40.4362L306.873 40.4261C307.011 40.0307 307.153 39.6209 307.506 39.4757C307.588 39.4413 307.676 39.4241 307.765 39.4254H307.773H307.772C308.086 39.4578 308.37 39.5548 308.621 39.7029L308.611 39.6979C308.819 39.8344 309.06 39.9117 309.308 39.9214H309.311C309.467 39.8913 309.67 39.6626 309.85 39.4613C310.133 39.1457 310.424 38.8208 310.811 38.8208C311.199 38.8208 311.488 39.1457 311.769 39.4606C311.949 39.6619 312.153 39.8905 312.309 39.9207C312.56 39.9091 312.803 39.8307 313.013 39.6936L313.007 39.6972C313.261 39.5471 313.544 39.4546 313.838 39.4261L313.846 39.4254H313.854C313.948 39.4259 314.035 39.4434 314.117 39.4779L314.113 39.4764C314.466 39.6231 314.609 40.0314 314.746 40.4268C314.804 40.6756 314.918 40.8913 315.074 41.0695L315.073 41.0681C315.197 41.1285 315.336 41.1531 315.474 41.1393H315.471C315.576 41.1393 315.687 41.1328 315.798 41.1271C315.917 41.1206 316.036 41.1141 316.15 41.1141C316.286 41.1013 316.424 41.1155 316.555 41.156C316.686 41.1964 316.808 41.2623 316.913 41.3499L316.912 41.3485C317.025 41.5099 317.102 41.6931 317.14 41.8864C317.178 42.0797 317.174 42.2788 317.13 42.4707L317.132 42.4614C317.09 42.7072 317.111 42.9598 317.193 43.1954L317.19 43.1853C317.366 43.3406 317.583 43.4549 317.821 43.5102L317.831 43.5124C318.227 43.6504 318.636 43.7928 318.782 44.145C318.823 44.3354 318.824 44.5323 318.786 44.7232C318.747 44.9141 318.669 45.095 318.557 45.2543L318.56 45.25C318.429 45.4592 318.352 45.6984 318.337 45.9452V45.9495C318.368 46.1055 318.596 46.309 318.798 46.4887C319.115 46.7712 319.44 47.0609 319.44 47.4484C319.44 47.8359 319.115 48.1264 318.8 48.4074C318.598 48.5872 318.37 48.7906 318.34 48.9466C318.355 49.2076 318.437 49.447 318.566 49.6526L318.562 49.6461C318.675 49.8063 318.752 49.9882 318.79 50.1801C318.828 50.372 318.825 50.5697 318.782 50.7604L318.783 50.7511C318.637 51.1048 318.228 51.2471 317.833 51.3837C317.595 51.4385 317.374 51.5516 317.19 51.713L317.191 51.7115C317.11 51.9468 317.09 52.1992 317.135 52.4441L317.134 52.4355C317.176 52.627 317.178 52.8252 317.14 53.0175C317.101 53.2098 317.024 53.392 316.911 53.5527L316.914 53.5484C316.808 53.6358 316.686 53.7015 316.555 53.7417C316.424 53.7819 316.286 53.7959 316.15 53.7827H316.154C316.039 53.7827 315.92 53.7763 315.802 53.7698C315.693 53.7624 315.584 53.7581 315.475 53.7568C315.337 53.7441 315.198 53.7697 315.074 53.8309L315.078 53.8287C314.92 54.0095 314.808 54.2262 314.753 54.4599L314.751 54.47C314.613 54.8654 314.47 55.2752 314.118 55.4204C314.036 55.4549 313.948 55.472 313.859 55.4707H313.851C313.551 55.4403 313.262 55.3454 313.003 55.1925L313.012 55.1975C312.805 55.0613 312.564 54.9843 312.316 54.9747H312.313C312.157 55.0049 311.954 55.2335 311.774 55.4348C311.49 55.7497 311.2 56.0746 310.812 56.0746C310.424 56.0746 310.134 55.7497 309.852 55.4355ZM312.391 44.0753L308.883 50.4506C308.873 50.4687 308.868 50.4892 308.868 50.5099C308.869 50.5306 308.874 50.5509 308.885 50.5687C308.895 50.5865 308.91 50.6013 308.928 50.6116C308.946 50.6219 308.967 50.6274 308.987 50.6274H309.596C309.617 50.6278 309.638 50.6223 309.657 50.6115C309.675 50.6007 309.69 50.5851 309.7 50.5663L313.203 44.1896C313.213 44.1715 313.218 44.151 313.218 44.1303C313.217 44.1096 313.212 44.0893 313.201 44.0715C313.191 44.0537 313.176 44.0389 313.158 44.0286C313.14 44.0183 313.119 44.0128 313.099 44.0128H312.496C312.474 44.0131 312.454 44.019 312.435 44.0298C312.417 44.0407 312.402 44.0568 312.391 44.0753ZM311.885 47.3456C311.794 47.4212 311.72 47.516 311.67 47.6232C311.619 47.7305 311.593 47.8475 311.593 47.966V49.6921C311.593 49.9394 311.707 50.1601 311.884 50.3054L311.886 50.3068C312.07 50.4606 312.309 50.5534 312.57 50.5534C312.831 50.5534 313.069 50.4599 313.255 50.3054L313.253 50.3068C313.433 50.1609 313.547 49.9402 313.547 49.6929V47.9675C313.547 47.7202 313.435 47.498 313.26 47.3499L313.259 47.3492C313.077 47.1856 312.84 47.0952 312.595 47.0954H312.573H312.575H312.552C312.307 47.0951 312.069 47.1846 311.885 47.3471L311.887 47.3463L311.885 47.3456ZM308.834 44.2493C308.743 44.3248 308.669 44.4196 308.619 44.5269C308.568 44.6341 308.542 44.7512 308.542 44.8697V46.5951C308.542 46.8431 308.655 47.0652 308.833 47.2112L308.835 47.2126C309.019 47.3686 309.258 47.4628 309.52 47.4628C309.782 47.4628 310.022 47.3679 310.207 47.2112L310.205 47.2126C310.386 47.0652 310.501 46.8431 310.501 46.5936V44.8726C310.501 44.6231 310.388 44.401 310.209 44.2529L310.208 44.2522C310.016 44.0886 309.772 43.9989 309.52 43.999C309.268 43.9992 309.024 44.0892 308.832 44.2529L308.833 44.2514L308.834 44.2493ZM312.413 49.7856C312.397 49.7734 312.385 49.7578 312.376 49.74C312.368 49.7221 312.363 49.7026 312.363 49.6828V47.9567C312.363 47.915 312.383 47.8783 312.412 47.8546C312.45 47.823 312.497 47.8052 312.547 47.8043H312.556H312.555H312.564C312.613 47.8048 312.661 47.8224 312.699 47.8539C312.715 47.866 312.727 47.8815 312.736 47.8992C312.744 47.9169 312.749 47.9363 312.749 47.956V49.6828C312.749 49.7024 312.744 49.7218 312.736 49.7395C312.727 49.7571 312.715 49.7727 312.7 49.7849C312.661 49.8165 312.611 49.8352 312.556 49.8352C312.501 49.8352 312.451 49.8165 312.411 49.7842H312.412L312.413 49.7856ZM309.365 46.69C309.35 46.6771 309.338 46.6614 309.329 46.6437C309.321 46.626 309.316 46.6068 309.315 46.5872V44.8618C309.315 44.8201 309.335 44.7834 309.364 44.759C309.403 44.7274 309.453 44.7087 309.508 44.7087C309.562 44.7087 309.613 44.7274 309.652 44.7597C309.668 44.7719 309.68 44.7875 309.688 44.8053C309.697 44.8232 309.701 44.8427 309.701 44.8625V46.5886C309.7 46.6082 309.696 46.6274 309.687 46.6451C309.679 46.6627 309.667 46.6785 309.652 46.6914C309.613 46.723 309.563 46.7417 309.509 46.7417C309.454 46.7417 309.404 46.723 309.364 46.6907L309.365 46.69Z" fill="#004666"/>
</g>
<rect width="46.3696" height="4.31345" rx="2.15673" transform="matrix(-1 0 0 1 457.468 193.566)" fill="#54C3F8"/>
<rect width="46.3696" height="4.31345" rx="2.15673" transform="matrix(-1 0 0 1 457.468 206.507)" fill="#54C3F8"/>
<rect width="46.3696" height="4.31345" rx="2.15673" transform="matrix(-1 0 0 1 457.468 219.447)" fill="#54C3F8"/>
<path d="M373.895 188.04C362.552 188.04 353.272 197.32 353.272 208.663C353.272 220.006 362.552 229.287 373.895 229.287C379.853 229.287 385.238 226.766 388.905 222.756L373.895 208.663V188.04Z" fill="#00BCD4"/>
<path d="M394.519 208.663C394.519 197.32 385.238 188.04 373.895 188.04V208.663H394.519Z" fill="#448AFF"/>
<path d="M373.895 208.664L388.905 222.756C392.342 219.09 394.519 214.163 394.519 208.664H373.895Z" fill="#3F51B5"/>
<g clip-path="url(#clip2_56_9)">
<path fill-rule="evenodd" clip-rule="evenodd" d="M302.223 62.1525L303.036 65.2409L305.592 74.957C305.834 75.8764 306.275 76.7313 306.885 77.4607C307.495 78.1902 308.257 78.7763 309.119 79.1774C309.981 79.5785 310.921 79.7848 311.872 79.7815C312.823 79.7782 313.761 79.5654 314.62 79.1583L324.364 74.5429C325.471 74.0186 326.407 73.1908 327.062 72.1558C327.717 71.1207 328.065 69.921 328.065 68.696V66.3193C328.065 65.1753 327.611 64.0781 326.802 63.2692C325.993 62.4603 324.896 62.0058 323.752 62.0058H305.54L305.217 60.852C304.964 59.9438 304.422 59.1433 303.672 58.5727C302.922 58.0021 302.005 57.6929 301.063 57.6924H297.332C296.903 57.6924 296.491 57.8628 296.188 58.1662C295.885 58.4695 295.714 58.8809 295.714 59.3099C295.714 59.7389 295.885 60.1504 296.188 60.4537C296.491 60.7571 296.903 60.9275 297.332 60.9275H301.063C301.298 60.9273 301.528 61.0044 301.716 61.147C301.903 61.2896 302.039 61.4897 302.102 61.7168L302.223 62.1525ZM313.235 76.2359L322.979 71.6205C323.533 71.3583 324.001 70.9442 324.329 70.4265C324.656 69.9088 324.83 69.3087 324.83 68.696V66.3193C324.83 66.0333 324.716 65.759 324.514 65.5568C324.312 65.3545 324.038 65.2409 323.752 65.2409H306.381L308.719 74.1353C308.84 74.5948 309.061 75.022 309.366 75.3865C309.671 75.7509 310.053 76.0438 310.484 76.2441C310.914 76.4444 311.384 76.5474 311.86 76.5456C312.335 76.5438 312.804 76.4373 313.233 76.2337M321.595 87.3474C322.596 87.3474 323.556 86.9497 324.264 86.2419C324.971 85.5341 325.369 84.5741 325.369 83.5731C325.369 82.5721 324.971 81.6121 324.264 80.9043C323.556 80.1965 322.596 79.7988 321.595 79.7988C320.594 79.7988 319.634 80.1965 318.926 80.9043C318.218 81.6121 317.821 82.5721 317.821 83.5731C317.821 84.5741 318.218 85.5341 318.926 86.2419C319.634 86.9497 320.594 87.3474 321.595 87.3474ZM305.959 83.5731C305.959 84.0687 305.861 84.5595 305.671 85.0174C305.482 85.4753 305.204 85.8914 304.853 86.2419C304.503 86.5924 304.087 86.8704 303.629 87.0601C303.171 87.2497 302.68 87.3474 302.184 87.3474C301.689 87.3474 301.198 87.2497 300.74 87.0601C300.282 86.8704 299.866 86.5924 299.515 86.2419C299.165 85.8914 298.887 85.4753 298.697 85.0174C298.508 84.5595 298.41 84.0687 298.41 83.5731C298.41 82.5721 298.808 81.6121 299.515 80.9043C300.223 80.1965 301.183 79.7988 302.184 79.7988C303.185 79.7988 304.145 80.1965 304.853 80.9043C305.561 81.6121 305.959 82.5721 305.959 83.5731Z" fill="#004666"/>
</g>
<defs>
<linearGradient id="paint0_linear_56_9" x1="79.1788" y1="194.652" x2="39.9241" y2="218.261" gradientUnits="userSpaceOnUse">
<stop stop-color="#0094F0"/>
<stop offset="1" stop-color="#2764E7"/>
</linearGradient>
<linearGradient id="paint1_linear_56_9" x1="79.1788" y1="194.651" x2="39.9241" y2="218.261" gradientUnits="userSpaceOnUse">
<stop stop-color="#0094F0"/>
<stop offset="1" stop-color="#2764E7"/>
</linearGradient>
<linearGradient id="paint2_linear_56_9" x1="79.1789" y1="194.651" x2="39.9242" y2="218.261" gradientUnits="userSpaceOnUse">
<stop stop-color="#0094F0"/>
<stop offset="1" stop-color="#2764E7"/>
</linearGradient>
<linearGradient id="paint3_linear_56_9" x1="79.1788" y1="194.651" x2="39.9241" y2="218.261" gradientUnits="userSpaceOnUse">
<stop stop-color="#0094F0"/>
<stop offset="1" stop-color="#2764E7"/>
</linearGradient>
<linearGradient id="paint4_linear_56_9" x1="42.3028" y1="202.139" x2="79.3947" y2="176.638" gradientUnits="userSpaceOnUse">
<stop stop-color="#22918B"/>
<stop offset="1" stop-color="#20AC9D"/>
</linearGradient>
<clipPath id="clip0_56_9">
<rect width="40.9778" height="40.9778" fill="white" transform="matrix(-1 0 0 1 76.8065 26.959)"/>
</clipPath>
<clipPath id="clip1_56_9">
<rect width="17.2538" height="17.2538" fill="white" transform="translate(302.184 38.8208)"/>
</clipPath>
<clipPath id="clip2_56_9">
<rect width="34.5076" height="34.5076" fill="white" transform="translate(295.714 55.5356)"/>
</clipPath>
</defs>
</svg>
